<svg width="400" height="214" viewBox="0 0 400 214" fill="none" xmlns="http://www.w3.org/2000/svg">
<g filter="url(#filter0_f_2_2379)">
<path fill-rule="evenodd" clip-rule="evenodd" d="M315.758 130.663C289.044 130.773 265.393 132.633 249.885 135.687C235.116 138.595 230.647 142.533 235.409 146.483C239.89 150.2 256.261 153.31 274.514 156.115C294.318 159.157 315.58 162.09 341.858 162.837C373.335 163.732 407.187 163.562 428.667 160.497C451.533 157.235 461.03 151.952 454.136 146.817C447.644 141.981 421.269 138.211 394.564 135.093C370.857 132.326 343.441 130.55 315.758 130.663Z" fill="#E51ED8"/>
<path fill-rule="evenodd" clip-rule="evenodd" d="M247.943 80.8949C221.482 78.6249 216.01 104.706 198.132 105.505C179.791 106.325 178.254 110.228 180.076 114.243C181.969 118.415 187.074 123.133 208.407 128.153C230.416 133.331 261.734 137.74 290.925 140.325C318.471 142.764 341.654 142.821 357.124 141.321C371.105 139.965 368.669 136.154 369.268 132.728C370.003 128.519 384.363 124.881 360.94 119.471C337.492 114.056 278.461 83.5128 247.943 80.8949Z" fill="#FF6A2F"/>
<path fill-rule="evenodd" clip-rule="evenodd" d="M185.871 50.3414C159.41 48.0715 153.939 74.1525 136.06 74.9516C117.72 75.7714 116.183 79.674 118.005 83.6899C119.898 87.8618 125.003 92.5798 146.336 97.5993C168.345 102.778 199.663 107.187 228.854 109.772C256.4 112.211 279.583 112.267 295.052 110.767C309.034 109.411 306.598 105.601 307.197 102.175C307.932 97.9654 322.292 94.3274 298.869 88.9178C275.42 83.5023 216.39 52.9594 185.871 50.3414Z" fill="#FF6A2F"/>
<path fill-rule="evenodd" clip-rule="evenodd" d="M220.833 127.913C194.388 125.663 165.357 122.504 147.457 123.318C129.095 124.154 127.503 128.062 129.27 132.08C131.105 136.255 136.147 140.973 157.422 145.98C179.372 151.146 210.646 155.534 239.817 158.097C267.344 160.516 290.54 160.553 306.039 159.039C320.048 157.67 317.664 153.858 318.31 150.428C319.105 146.214 333.524 142.56 310.163 137.165C286.777 131.763 251.332 130.509 220.833 127.913Z" fill="#A52FFF"/>
<path fill-rule="evenodd" clip-rule="evenodd" d="M350.011 78.2582C322.492 71.5684 353.148 102.879 333.5 99.524C313.344 96.082 248.498 82.1459 248.647 84.5334C248.802 87.0138 252.175 90.4412 272.919 97.427C294.319 104.634 293.221 113.791 323.543 121.211C352.155 128.213 410.029 132.73 427.396 135.23C443.091 137.489 472.703 160.826 507.557 162.92C510.254 160.972 469.521 125.633 446.699 118.014C423.853 110.386 381.75 85.9739 350.011 78.2582Z" fill="#A52FFF"/>
</g>
<g style="mix-blend-mode:color-dodge" filter="url(#filter1_f_2_2379)">
<path fill-rule="evenodd" clip-rule="evenodd" d="M223.599 130.96C197.885 133.286 175.099 136.848 160.136 140.746C145.888 144.457 141.541 148.186 146.08 151.154C150.351 153.946 166.074 155.228 183.611 156.092C202.639 157.029 223.071 157.751 248.357 156.191C278.645 154.323 311.231 151.349 331.942 146.942C353.989 142.252 363.19 136.957 356.613 133.158C350.419 129.58 325.075 128.572 299.405 128.148C276.616 127.772 250.248 128.55 223.599 130.96Z" fill="#D4DBFF"/>
<path fill-rule="evenodd" clip-rule="evenodd" d="M158.872 94.2244C133.427 94.5019 127.864 117.18 110.647 119.355C92.9833 121.587 91.4597 125.04 93.1679 128.309C94.9424 131.706 99.8023 135.299 120.28 137.793C141.406 140.365 171.501 141.504 199.57 141.267C226.056 141.043 248.371 139.154 263.278 136.583C276.751 134.259 274.45 131.216 275.065 128.247C275.821 124.599 289.684 120.299 267.2 117.648C244.691 114.994 188.218 93.9043 158.872 94.2244Z" fill="#402FFF"/>
<path fill-rule="evenodd" clip-rule="evenodd" d="M99.4696 73.3802C74.025 73.6577 68.4618 96.3361 51.244 98.5112C33.5809 100.742 32.0572 104.196 33.7654 107.465C35.5399 110.861 40.3998 114.455 60.8773 116.948C82.0035 119.521 112.099 120.66 140.167 120.423C166.654 120.199 188.968 118.309 203.876 115.738C217.349 113.415 215.048 110.372 215.663 107.403C216.418 103.755 230.282 99.4551 207.797 96.8037C185.288 94.1494 128.816 73.0601 99.4696 73.3802Z" fill="#402FFF"/>
<path fill-rule="evenodd" clip-rule="evenodd" d="M132.247 136.548C106.818 136.84 78.9094 136.575 61.671 138.765C43.9865 141.012 42.4095 144.474 44.0646 147.75C45.784 151.154 50.5833 154.753 71.0051 157.241C92.0738 159.807 122.127 160.932 150.177 160.678C176.646 160.438 198.973 158.531 213.909 155.946C227.408 153.609 225.157 150.56 225.818 147.584C226.631 143.927 240.552 139.609 218.127 136.964C195.678 134.316 161.574 136.21 132.247 136.548Z" fill="#FF9C6B"/>
<path fill-rule="evenodd" clip-rule="evenodd" d="M257.136 83.4466C230.723 80.0467 259.876 104.162 241.002 102.945C221.639 101.697 159.38 95.2428 159.496 97.2646C159.617 99.3649 162.825 102.003 182.713 106.222C203.23 110.573 202.069 118.467 231.171 122.255C258.632 125.829 314.287 124.841 330.975 125.519C346.058 126.132 374.296 143.541 407.821 142.411C410.439 140.527 371.633 113.822 349.752 109.238C327.848 104.648 287.599 87.3677 257.136 83.4466Z" fill="#FF9C6B"/>
</g>
<g style="mix-blend-mode:color-dodge" filter="url(#filter2_f_2_2379)">
<path fill-rule="evenodd" clip-rule="evenodd" d="M197.906 96.5912C224.658 96.2258 248.518 94.4575 264.346 91.7957C279.42 89.2609 284.286 85.988 279.913 82.8006C275.797 79.8016 259.72 77.4216 241.728 75.3123C222.207 73.0236 201.215 70.8399 174.985 70.4989C143.566 70.0903 109.662 70.5787 87.854 73.3116C64.6401 76.2206 54.6073 80.647 60.9966 84.7835C67.013 88.6787 93.039 91.4958 119.461 93.7745C142.917 95.7975 170.183 96.9698 197.906 96.5912Z" fill="#D4DBFF"/>
<path fill-rule="evenodd" clip-rule="evenodd" d="M260.834 136.669C287.096 138.256 295.172 116.83 313.148 115.991C331.589 115.13 333.516 111.916 332.093 108.645C330.614 105.246 325.974 101.433 305.119 97.5404C283.603 93.5244 252.693 90.2349 223.73 88.4183C196.399 86.7041 173.198 86.8969 157.563 88.2856C143.432 89.5406 145.491 92.6377 144.55 95.451C143.395 98.9075 128.658 102.036 151.566 106.227C174.498 110.422 230.546 134.839 260.834 136.669Z" fill="#402FFF"/>
<path fill-rule="evenodd" clip-rule="evenodd" d="M319.94 161.063C346.202 162.65 354.278 141.224 372.254 140.385C390.695 139.524 392.622 136.31 391.198 133.039C389.719 129.64 385.079 125.827 364.224 121.934C342.709 117.918 311.798 114.629 282.835 112.812C255.504 111.098 232.303 111.291 216.668 112.68C202.538 113.935 204.596 117.032 203.656 119.845C202.5 123.302 187.763 126.43 210.671 130.621C233.604 134.816 289.651 159.233 319.94 161.063Z" fill="#402FFF"/>
<path fill-rule="evenodd" clip-rule="evenodd" d="M292.661 97.8667C318.908 99.4377 347.655 101.726 365.653 100.874C384.118 100 386.101 96.7819 384.733 93.5077C383.311 90.1063 378.735 86.2922 357.936 82.4092C336.479 78.4032 305.611 75.1307 276.665 73.3315C249.351 71.6337 226.135 71.8422 210.469 73.2428C196.31 74.5087 198.317 77.6077 197.327 80.4248C196.112 83.8859 181.315 87.028 204.162 91.208C227.033 95.3926 262.389 96.0547 292.661 97.8667Z" fill="#FF9C6B"/>
<path fill-rule="evenodd" clip-rule="evenodd" d="M158.412 139.884C185.293 145.081 157.725 119.743 177.058 122.29C196.892 124.902 260.416 135.652 260.504 133.697C260.596 131.666 257.562 128.893 237.493 123.383C216.788 117.699 218.8 110.185 189.187 104.418C161.243 98.9759 103.761 95.8716 86.625 94.0027C71.1381 92.3137 43.8216 73.4979 9.14043 72.1424C6.24659 73.7657 43.5004 102.301 65.5861 108.308C87.6957 114.322 127.41 133.89 158.412 139.884Z" fill="#FF9C6B"/>
</g>
<defs>
<filter id="filter0_f_2_2379" x="67.3882" y="0.167633" width="490.33" height="213.176" filterUnits="userSpaceOnUse" color-interpolation-filters="sRGB">
<feFlood flood-opacity="0" result="BackgroundImageFix"/>
<feBlend mode="normal" in="SourceGraphic" in2="BackgroundImageFix" result="shape"/>
<feGaussianBlur stdDeviation="25.0169" result="effect1_foregroundBlur_2_2379"/>
</filter>
<filter id="filter1_f_2_2379" x="-16.8036" y="23.3427" width="474.784" height="187.404" filterUnits="userSpaceOnUse" color-interpolation-filters="sRGB">
<feFlood flood-opacity="0" result="BackgroundImageFix"/>
<feBlend mode="normal" in="SourceGraphic" in2="BackgroundImageFix" result="shape"/>
<feGaussianBlur stdDeviation="25.0169" result="effect1_foregroundBlur_2_2379"/>
</filter>
<filter id="filter2_f_2_2379" x="-41.0525" y="20.3383" width="482.657" height="190.842" filterUnits="userSpaceOnUse" color-interpolation-filters="sRGB">
<feFlood flood-opacity="0" result="BackgroundImageFix"/>
<feBlend mode="normal" in="SourceGraphic" in2="BackgroundImageFix" result="shape"/>
<feGaussianBlur stdDeviation="25.0169" result="effect1_foregroundBlur_2_2379"/>
</filter>
</defs>
</svg>
