<svg width="383" height="142" viewBox="0 0 383 142" fill="none" xmlns="http://www.w3.org/2000/svg">
<g filter="url(#filter0_d_2_2398)">
<rect x="33.2441" y="32.4536" width="471.647" height="76.7272" rx="25.6968" fill="#262A2E" shape-rendering="crispEdges"/>
<rect x="31.3407" y="30.5501" width="475.454" height="80.5342" rx="27.6002" stroke="white" stroke-opacity="0.2" stroke-width="3.80693" shape-rendering="crispEdges"/>
<rect x="31.3407" y="30.5501" width="475.454" height="80.5342" rx="27.6002" stroke="url(#paint0_radial_2_2398)" stroke-width="3.80693" shape-rendering="crispEdges"/>
</g>
<path d="M59.293 69.2328H57.952C57.8726 68.8471 57.7338 68.5082 57.5356 68.2162C57.3409 67.9242 57.103 67.6791 56.8218 67.4808C56.5442 67.2789 56.236 67.1275 55.8971 67.0265C55.5582 66.9256 55.2049 66.8751 54.8372 66.8751C54.1667 66.8751 53.5592 67.0446 53.0148 67.3834C52.4741 67.7223 52.0433 68.2216 51.7224 68.8813C51.4052 69.5411 51.2466 70.3504 51.2466 71.3093C51.2466 72.2683 51.4052 73.0776 51.7224 73.7373C52.0433 74.3971 52.4741 74.8964 53.0148 75.2352C53.5592 75.5741 54.1667 75.7435 54.8372 75.7435C55.2049 75.7435 55.5582 75.6931 55.8971 75.5921C56.236 75.4912 56.5442 75.3416 56.8218 75.1433C57.103 74.9414 57.3409 74.6945 57.5356 74.4025C57.7338 74.1068 57.8726 73.768 57.952 73.3858H59.293C59.1921 73.9518 59.0082 74.4583 58.7415 74.9054C58.4747 75.3524 58.143 75.7327 57.7465 76.0464C57.3499 76.3564 56.9047 76.5925 56.4108 76.7548C55.9205 76.917 55.396 76.9981 54.8372 76.9981C53.8927 76.9981 53.0527 76.7674 52.3173 76.3059C51.5818 75.8445 51.0032 75.1884 50.5814 74.3376C50.1596 73.4868 49.9488 72.4774 49.9488 71.3093C49.9488 70.1413 50.1596 69.1319 50.5814 68.2811C51.0032 67.4303 51.5818 66.7742 52.3173 66.3127C53.0527 65.8513 53.8927 65.6206 54.8372 65.6206C55.396 65.6206 55.9205 65.7017 56.4108 65.8639C56.9047 66.0261 57.3499 66.2641 57.7465 66.5777C58.143 66.8877 58.4747 67.2663 58.7415 67.7133C59.0082 68.1567 59.1921 68.6632 59.293 69.2328ZM61.5916 76.8467V68.5407H62.8246V69.7952H62.9111C63.0625 69.3842 63.3365 69.0508 63.733 68.7948C64.1296 68.5389 64.5766 68.4109 65.0741 68.4109C65.1678 68.4109 65.285 68.4127 65.4256 68.4163C65.5662 68.4199 65.6725 68.4253 65.7446 68.4325V69.7303C65.7014 69.7195 65.6022 69.7033 65.4472 69.6817C65.2958 69.6564 65.1354 69.6438 64.9659 69.6438C64.5622 69.6438 64.2017 69.7285 63.8844 69.898C63.5708 70.0638 63.322 70.2945 63.1382 70.5901C62.9579 70.8821 62.8678 71.2156 62.8678 71.5905V76.8467H61.5916ZM70.7916 77.0197C69.9913 77.0197 69.3009 76.8431 68.7205 76.4898C68.1437 76.1329 67.6985 75.6354 67.3849 74.9973C67.0748 74.3556 66.9198 73.6093 66.9198 72.7586C66.9198 71.9078 67.0748 71.1579 67.3849 70.509C67.6985 69.8565 68.1347 69.3482 68.6935 68.9841C69.2559 68.6164 69.912 68.4325 70.6618 68.4325C71.0945 68.4325 71.5216 68.5046 71.9434 68.6488C72.3652 68.793 72.7492 69.0273 73.0953 69.3518C73.4413 69.6726 73.7171 70.098 73.9226 70.628C74.1281 71.1579 74.2308 71.8104 74.2308 72.5855V73.1263H67.8283V72.0231H72.933C72.933 71.5545 72.8393 71.1363 72.6518 70.7686C72.468 70.4009 72.2048 70.1107 71.8623 69.898C71.5235 69.6853 71.1233 69.5789 70.6618 69.5789C70.1535 69.5789 69.7137 69.7051 69.3424 69.9574C68.9747 70.2062 68.6917 70.5306 68.4934 70.9308C68.2951 71.331 68.196 71.76 68.196 72.2178V72.9532C68.196 73.5805 68.3041 74.1123 68.5204 74.5485C68.7404 74.9811 69.045 75.3109 69.4343 75.538C69.8237 75.7616 70.2761 75.8733 70.7916 75.8733C71.1269 75.8733 71.4297 75.8265 71.7001 75.7327C71.9741 75.6354 72.2102 75.4912 72.4085 75.3001C72.6068 75.1054 72.76 74.8639 72.8681 74.5755L74.1011 74.9216C73.9713 75.3398 73.7532 75.7075 73.4467 76.0247C73.1403 76.3384 72.7618 76.5835 72.3112 76.7602C71.8605 76.9332 71.354 77.0197 70.7916 77.0197ZM78.9209 77.0414C78.3946 77.0414 77.9169 76.9422 77.4879 76.7439C77.0589 76.5421 76.7183 76.2518 76.4659 75.8733C76.2135 75.4912 76.0874 75.0297 76.0874 74.489C76.0874 74.0131 76.1811 73.6274 76.3686 73.3318C76.556 73.0325 76.8066 72.7982 77.1202 72.6288C77.4339 72.4593 77.7799 72.3332 78.1585 72.2502C78.5406 72.1637 78.9245 72.0952 79.3103 72.0448C79.815 71.9799 80.2242 71.9312 80.5378 71.8988C80.855 71.8627 81.0858 71.8032 81.23 71.7203C81.3778 71.6374 81.4517 71.4932 81.4517 71.2877V71.2444C81.4517 70.7109 81.3057 70.2963 81.0137 70.0007C80.7253 69.7051 80.2872 69.5573 79.6996 69.5573C79.0904 69.5573 78.6127 69.6907 78.2666 69.9574C77.9205 70.2242 77.6772 70.509 77.5366 70.8118L76.3253 70.3792C76.5416 69.8745 76.83 69.4816 77.1905 69.2004C77.5546 68.9156 77.9512 68.7173 78.3802 68.6055C78.8128 68.4902 79.2382 68.4325 79.6564 68.4325C79.9231 68.4325 80.2296 68.465 80.5756 68.5298C80.9253 68.5911 81.2624 68.7191 81.5869 68.9138C81.9149 69.1085 82.1871 69.4023 82.4034 69.7952C82.6197 70.1882 82.7279 70.7145 82.7279 71.3742V76.8467H81.4517V75.7219H81.3868C81.3003 75.9022 81.1561 76.095 80.9542 76.3005C80.7523 76.506 80.4837 76.6808 80.1485 76.825C79.8132 76.9693 79.404 77.0414 78.9209 77.0414ZM79.1156 75.8949C79.6203 75.8949 80.0457 75.7958 80.3918 75.5975C80.7415 75.3993 81.0046 75.1433 81.1813 74.8297C81.3615 74.516 81.4517 74.1862 81.4517 73.8401V72.672C81.3976 72.7369 81.2786 72.7964 81.0948 72.8505C80.9145 72.901 80.7054 72.946 80.4675 72.9857C80.2332 73.0217 80.0042 73.0542 79.7807 73.083C79.5608 73.1082 79.3824 73.1299 79.2454 73.1479C78.9137 73.1912 78.6037 73.2615 78.3153 73.3588C78.0305 73.4525 77.7998 73.5949 77.6231 73.786C77.4501 73.9735 77.3636 74.2294 77.3636 74.5539C77.3636 74.9973 77.5276 75.3326 77.8556 75.5597C78.1873 75.7832 78.6073 75.8949 79.1156 75.8949ZM88.974 68.5407V69.6222H84.6696V68.5407H88.974ZM85.9241 66.5507H87.2003V74.4674C87.2003 74.8279 87.2526 75.0982 87.3571 75.2785C87.4653 75.4551 87.6023 75.5741 87.7681 75.6354C87.9375 75.6931 88.116 75.7219 88.3034 75.7219C88.444 75.7219 88.5594 75.7147 88.6495 75.7003C88.7396 75.6823 88.8117 75.6678 88.8658 75.657L89.1254 76.8034C89.0389 76.8359 88.9181 76.8683 88.7631 76.9008C88.6081 76.9368 88.4116 76.9548 88.1737 76.9548C87.8132 76.9548 87.4599 76.8773 87.1138 76.7223C86.7713 76.5673 86.4865 76.3312 86.2594 76.0139C86.0359 75.6967 85.9241 75.2965 85.9241 74.8134V66.5507ZM94.5915 77.0197C93.7911 77.0197 93.1008 76.8431 92.5204 76.4898C91.9436 76.1329 91.4983 75.6354 91.1847 74.9973C90.8747 74.3556 90.7196 73.6093 90.7196 72.7586C90.7196 71.9078 90.8747 71.1579 91.1847 70.509C91.4983 69.8565 91.9345 69.3482 92.4933 68.9841C93.0557 68.6164 93.7118 68.4325 94.4617 68.4325C94.8943 68.4325 95.3215 68.5046 95.7433 68.6488C96.1651 68.793 96.549 69.0273 96.8951 69.3518C97.2412 69.6726 97.517 70.098 97.7224 70.628C97.9279 71.1579 98.0307 71.8104 98.0307 72.5855V73.1263H91.6281V72.0231H96.7329C96.7329 71.5545 96.6391 71.1363 96.4517 70.7686C96.2678 70.4009 96.0046 70.1107 95.6622 69.898C95.3233 69.6853 94.9231 69.5789 94.4617 69.5789C93.9534 69.5789 93.5136 69.7051 93.1422 69.9574C92.7745 70.2062 92.4915 70.5306 92.2932 70.9308C92.095 71.331 91.9958 71.76 91.9958 72.2178V72.9532C91.9958 73.5805 92.104 74.1123 92.3203 74.5485C92.5402 74.9811 92.8448 75.3109 93.2342 75.538C93.6235 75.7616 94.0759 75.8733 94.5915 75.8733C94.9267 75.8733 95.2296 75.8265 95.4999 75.7327C95.7739 75.6354 96.01 75.4912 96.2083 75.3001C96.4066 75.1054 96.5598 74.8639 96.668 74.5755L97.9009 74.9216C97.7711 75.3398 97.553 75.7075 97.2466 76.0247C96.9402 76.3384 96.5616 76.5835 96.111 76.7602C95.6604 76.9332 95.1539 77.0197 94.5915 77.0197ZM107.308 77.0414C106.782 77.0414 106.304 76.9422 105.875 76.7439C105.446 76.5421 105.105 76.2518 104.853 75.8733C104.601 75.4912 104.475 75.0297 104.475 74.489C104.475 74.0131 104.568 73.6274 104.756 73.3318C104.943 73.0325 105.194 72.7982 105.507 72.6288C105.821 72.4593 106.167 72.3332 106.546 72.2502C106.928 72.1637 107.312 72.0952 107.697 72.0448C108.202 71.9799 108.611 71.9312 108.925 71.8988C109.242 71.8627 109.473 71.8032 109.617 71.7203C109.765 71.6374 109.839 71.4932 109.839 71.2877V71.2444C109.839 70.7109 109.693 70.2963 109.401 70.0007C109.112 69.7051 108.674 69.5573 108.087 69.5573C107.478 69.5573 107 69.6907 106.654 69.9574C106.308 70.2242 106.064 70.509 105.924 70.8118L104.712 70.3792C104.929 69.8745 105.217 69.4816 105.578 69.2004C105.942 68.9156 106.338 68.7173 106.767 68.6055C107.2 68.4902 107.625 68.4325 108.044 68.4325C108.31 68.4325 108.617 68.465 108.963 68.5298C109.313 68.5911 109.65 68.7191 109.974 68.9138C110.302 69.1085 110.574 69.4023 110.791 69.7952C111.007 70.1882 111.115 70.7145 111.115 71.3742V76.8467H109.839V75.7219H109.774C109.687 75.9022 109.543 76.095 109.341 76.3005C109.139 76.506 108.871 76.6808 108.536 76.825C108.2 76.9693 107.791 77.0414 107.308 77.0414ZM107.503 75.8949C108.007 75.8949 108.433 75.7958 108.779 75.5975C109.129 75.3993 109.392 75.1433 109.568 74.8297C109.749 74.516 109.839 74.1862 109.839 73.8401V72.672C109.785 72.7369 109.666 72.7964 109.482 72.8505C109.302 72.901 109.093 72.946 108.855 72.9857C108.62 73.0217 108.391 73.0542 108.168 73.083C107.948 73.1082 107.77 73.1299 107.633 73.1479C107.301 73.1912 106.991 73.2615 106.702 73.3588C106.418 73.4525 106.187 73.5949 106.01 73.786C105.837 73.9735 105.751 74.2294 105.751 74.5539C105.751 74.9973 105.915 75.3326 106.243 75.5597C106.574 75.7832 106.994 75.8949 107.503 75.8949ZM115.025 71.8501V76.8467H113.749V68.5407H114.982V69.8385H115.09C115.285 69.4167 115.58 69.0778 115.977 68.8219C116.373 68.5623 116.885 68.4325 117.513 68.4325C118.075 68.4325 118.567 68.5479 118.989 68.7786C119.411 69.0057 119.739 69.3518 119.973 69.8168C120.207 70.2783 120.325 70.8623 120.325 71.5689V76.8467H119.048V71.6554C119.048 71.0029 118.879 70.4946 118.54 70.1305C118.201 69.7628 117.736 69.5789 117.145 69.5789C116.737 69.5789 116.373 69.6672 116.053 69.8439C115.735 70.0205 115.485 70.2783 115.301 70.6172C115.117 70.956 115.025 71.367 115.025 71.8501ZM123.486 79.9614C123.269 79.9614 123.076 79.9434 122.907 79.9074C122.738 79.8749 122.62 79.8425 122.556 79.81L122.88 78.6853C123.19 78.7646 123.464 78.7934 123.702 78.7718C123.94 78.7501 124.151 78.6438 124.335 78.4527C124.522 78.2653 124.693 77.9606 124.848 77.5388L125.086 76.8899L122.015 68.5407H123.399L125.692 75.1595H125.778L128.071 68.5407H129.456L125.93 78.058C125.771 78.487 125.575 78.8421 125.34 79.1233C125.106 79.4081 124.834 79.619 124.524 79.756C124.217 79.8929 123.871 79.9614 123.486 79.9614ZM135.057 68.5407V69.6222H130.752V68.5407H135.057ZM132.007 66.5507H133.283V74.4674C133.283 74.8279 133.335 75.0982 133.44 75.2785C133.548 75.4551 133.685 75.5741 133.851 75.6354C134.02 75.6931 134.199 75.7219 134.386 75.7219C134.527 75.7219 134.642 75.7147 134.732 75.7003C134.823 75.6823 134.895 75.6678 134.949 75.657L135.208 76.8034C135.122 76.8359 135.001 76.8683 134.846 76.9008C134.691 76.9368 134.494 76.9548 134.257 76.9548C133.896 76.9548 133.543 76.8773 133.197 76.7223C132.854 76.5673 132.569 76.3312 132.342 76.0139C132.119 75.6967 132.007 75.2965 132.007 74.8134V66.5507ZM137.281 76.8467V68.5407H138.557V76.8467H137.281ZM137.93 67.1563C137.681 67.1563 137.467 67.0716 137.286 66.9022C137.11 66.7327 137.022 66.529 137.022 66.2911C137.022 66.0532 137.11 65.8495 137.286 65.6801C137.467 65.5106 137.681 65.4259 137.93 65.4259C138.179 65.4259 138.391 65.5106 138.568 65.6801C138.748 65.8495 138.838 66.0532 138.838 66.2911C138.838 66.529 138.748 66.7327 138.568 66.9022C138.391 67.0716 138.179 67.1563 137.93 67.1563ZM142.475 71.8501V76.8467H141.199V68.5407H142.432V69.8385H142.54C142.735 69.4167 143.031 69.0778 143.427 68.8219C143.824 68.5623 144.336 68.4325 144.963 68.4325C145.525 68.4325 146.017 68.5479 146.439 68.7786C146.861 69.0057 147.189 69.3518 147.423 69.8168C147.658 70.2783 147.775 70.8623 147.775 71.5689V76.8467H146.499V71.6554C146.499 71.0029 146.329 70.4946 145.99 70.1305C145.651 69.7628 145.186 69.5789 144.595 69.5789C144.188 69.5789 143.824 69.6672 143.503 69.8439C143.186 70.0205 142.935 70.2783 142.751 70.6172C142.567 70.956 142.475 71.367 142.475 71.8501ZM153.764 80.1345C153.148 80.1345 152.618 80.0552 152.174 79.8965C151.731 79.7415 151.361 79.536 151.066 79.2801C150.774 79.0277 150.541 78.7574 150.368 78.4689L151.385 77.7552C151.5 77.9066 151.646 78.0796 151.823 78.2743C151.999 78.4726 152.241 78.6438 152.547 78.788C152.857 78.9358 153.263 79.0097 153.764 79.0097C154.435 79.0097 154.988 78.8475 155.424 78.523C155.86 78.1986 156.079 77.6903 156.079 76.9981V75.3109H155.97C155.877 75.4623 155.743 75.6498 155.57 75.8733C155.401 76.0932 155.156 76.2897 154.835 76.4627C154.518 76.6322 154.089 76.7169 153.548 76.7169C152.877 76.7169 152.275 76.5583 151.742 76.241C151.212 75.9238 150.792 75.4623 150.482 74.8567C150.175 74.251 150.022 73.5156 150.022 72.6504C150.022 71.7996 150.172 71.0588 150.471 70.4279C150.77 69.7934 151.186 69.3031 151.72 68.957C152.254 68.6073 152.87 68.4325 153.569 68.4325C154.11 68.4325 154.539 68.5226 154.856 68.7029C155.177 68.8795 155.422 69.0814 155.592 69.3085C155.765 69.532 155.898 69.7159 155.992 69.8601H156.122V68.5407H157.355V77.0846C157.355 77.7984 157.192 78.3788 156.868 78.8258C156.547 79.2765 156.115 79.6063 155.57 79.8154C155.029 80.0281 154.427 80.1345 153.764 80.1345ZM153.721 75.5705C154.233 75.5705 154.665 75.4533 155.019 75.219C155.372 74.9847 155.641 74.6476 155.824 74.2078C156.008 73.768 156.1 73.2416 156.1 72.6288C156.1 72.0303 156.01 71.5022 155.83 71.0444C155.65 70.5865 155.383 70.2278 155.029 69.9683C154.676 69.7087 154.24 69.5789 153.721 69.5789C153.18 69.5789 152.729 69.7159 152.369 69.9899C152.012 70.2639 151.743 70.6316 151.563 71.093C151.387 71.5545 151.298 72.0664 151.298 72.6288C151.298 73.2056 151.388 73.7157 151.569 74.1591C151.752 74.5989 152.023 74.945 152.38 75.1974C152.74 75.4461 153.187 75.5705 153.721 75.5705ZM161.856 62.203V80.4157H160.774V62.203H161.856Z" fill="#BFC2C8"/>
<defs>
<filter id="filter0_d_2_2398" x="0.885302" y="0.0947742" width="536.365" height="141.445" filterUnits="userSpaceOnUse" color-interpolation-filters="sRGB">
<feFlood flood-opacity="0" result="BackgroundImageFix"/>
<feColorMatrix in="SourceAlpha" type="matrix" values="0 0 0 0 0 0 0 0 0 0 0 0 0 0 0 0 0 0 127 0" result="hardAlpha"/>
<feOffset/>
<feGaussianBlur stdDeviation="14.276"/>
<feComposite in2="hardAlpha" operator="out"/>
<feColorMatrix type="matrix" values="0 0 0 0 0 0 0 0 0 0 0 0 0 0 0 0 0 0 0.05 0"/>
<feBlend mode="normal" in2="BackgroundImageFix" result="effect1_dropShadow_2_2398"/>
<feBlend mode="normal" in="SourceGraphic" in2="effect1_dropShadow_2_2398" result="shape"/>
</filter>
<radialGradient id="paint0_radial_2_2398" cx="0" cy="0" r="1" gradientUnits="userSpaceOnUse" gradientTransform="translate(137.006 32.1442) rotate(16.1985) scale(137.521 119.724)">
<stop stop-color="white"/>
<stop offset="1" stop-opacity="0"/>
</radialGradient>
</defs>
</svg>
