<svg width="21" height="21" viewBox="0 0 21 21" fill="none" xmlns="http://www.w3.org/2000/svg">
<path d="M7.58333 18.8337C10.1146 18.8337 12.1667 16.7816 12.1667 14.2503C12.1667 11.719 10.1146 9.66699 7.58333 9.66699C5.05203 9.66699 3 11.719 3 14.2503C3 16.7816 5.05203 18.8337 7.58333 18.8337Z" stroke="white" stroke-width="1.25" stroke-linecap="round" stroke-linejoin="round"/>
<path d="M13.4154 18.8337C15.9467 18.8337 17.9987 16.7816 17.9987 14.2503C17.9987 11.719 15.9467 9.66699 13.4154 9.66699C10.8841 9.66699 8.83203 11.719 8.83203 14.2503C8.83203 16.7816 10.8841 18.8337 13.4154 18.8337Z" stroke="white" stroke-width="1.25" stroke-linecap="round" stroke-linejoin="round"/>
<path d="M10.5013 8.00033C10.5013 8.00033 13.8346 6.45621 13.8346 3.9494C13.8346 2.965 13.1329 2.16699 12.168 2.16699C11.3785 2.16699 10.8522 2.51013 10.5013 3.1964C10.1504 2.51013 9.62414 2.16699 8.83464 2.16699C7.86973 2.16699 7.16797 2.965 7.16797 3.9494C7.16797 6.45621 10.5013 8.00033 10.5013 8.00033Z" stroke="white" stroke-width="1.25" stroke-linejoin="round"/>
</svg>
