<svg width="14" height="33" viewBox="0 0 14 33" fill="none" xmlns="http://www.w3.org/2000/svg">
<g clip-path="url(#clip0_2_510)">
<path d="M7.18449 8.64172H7.28949C7.38949 8.63657 7.47449 8.57469 7.51449 8.48188C8.09949 7.06907 8.16949 5.82125 7.71449 4.76938C7.17449 3.49579 5.89949 2.5161 3.82449 1.7736C3.75449 1.74782 3.67449 1.75813 3.61949 1.79422C3.55449 1.83547 3.50949 1.9025 3.49949 1.97469C3.10949 4.5425 3.37449 6.3936 4.28949 7.47641C4.93449 8.24985 5.90949 8.64172 7.18449 8.64172Z" fill="#D89C3A"/>
<path d="M11.1301 14.0041C11.1601 14.0196 11.1951 14.0247 11.2301 14.0247C11.2851 14.0247 11.3351 14.0092 11.3801 13.9732C12.3451 13.2358 12.8951 12.3438 13.0151 11.3332C13.1851 9.85847 12.4751 8.15175 10.8351 6.11503C10.7801 6.05315 10.6951 6.02222 10.6301 6.02222C10.5501 6.02737 10.4801 6.06862 10.4401 6.13565C8.99509 8.42503 8.48509 10.2297 8.89009 11.6528C9.17509 12.6583 9.92509 13.4524 11.1301 14.0041Z" fill="#D89C3A"/>
<path d="M13.61 13.7155C13.59 13.633 13.535 13.5659 13.465 13.5402C13.39 13.5092 13.31 13.5144 13.245 13.5556C10.965 14.953 9.74005 16.34 9.49505 17.8044C9.32505 18.8356 9.66004 19.8927 10.505 20.9291C10.555 20.9909 10.625 21.0219 10.695 21.0219H10.74C11.925 20.795 12.795 20.2433 13.34 19.3925C14.12 18.1395 14.21 16.2833 13.61 13.7155Z" fill="#D89C3A"/>
<path d="M12.6544 21.3311C9.86445 22.0014 8.14945 23.0172 7.41945 24.43C6.90945 25.4148 6.89945 26.5853 7.38945 27.9156C7.41945 28.0084 7.49945 28.0703 7.58445 28.0806C7.82445 28.1115 8.05945 28.127 8.28945 28.127C9.24445 28.127 10.0694 27.8486 10.7394 27.2968C11.9594 26.2914 12.6844 24.43 12.9544 21.5992C12.9594 21.5167 12.9294 21.4393 12.8694 21.3878C12.8094 21.3311 12.7244 21.3104 12.6544 21.3311Z" fill="#D89C3A"/>
<path d="M6.91528 9.61636C6.84028 9.59058 6.76028 9.60605 6.70028 9.6473C4.60528 11.1426 3.53528 12.5606 3.42028 13.9734C3.34028 14.9995 3.78528 15.9998 4.74028 16.9486C4.78528 16.995 4.85028 17.0207 4.91028 17.0207C4.93028 17.0207 4.95028 17.0207 4.97028 17.0156C6.12528 16.7062 6.94528 16.1081 7.38528 15.2315C8.03028 13.9734 7.92028 12.1842 7.06528 9.77105C7.04028 9.69371 6.98528 9.63699 6.91528 9.61636Z" fill="#D89C3A"/>
<path d="M3.28972 24.3838H3.30472C4.55472 24.3064 5.51472 23.8578 6.16472 23.0483C7.10472 21.8778 7.39972 19.9855 7.06472 17.2836C7.05472 17.2011 7.00972 17.1341 6.93972 17.098C6.86972 17.0619 6.78972 17.0516 6.71972 17.0825C4.22472 18.2169 2.80972 19.475 2.39472 20.9291C2.09972 21.9655 2.32972 23.0896 3.08972 24.2755C3.13472 24.3425 3.20972 24.3838 3.28972 24.3838Z" fill="#D89C3A"/>
<path d="M6.14001 24.2393C3.11001 24.6311 1.22001 25.518 0.360011 26.9566C-0.264989 28.0033 -0.309989 29.3336 0.235011 30.9115C0.265011 30.994 0.33001 31.0558 0.41001 31.0765C0.88001 31.1899 1.32001 31.2415 1.74001 31.2415C2.58001 31.2415 3.32001 31.0146 3.94501 30.5608C5.28501 29.5811 6.09001 27.6063 6.41001 24.5229C6.42001 24.4455 6.39001 24.3682 6.34001 24.3166C6.29501 24.2547 6.22001 24.229 6.14001 24.2393Z" fill="#D89C3A"/>
<path d="M7.16995 23.6774C9.32995 19.6659 9.60995 14.8757 8.00495 9.44103C7.96495 9.30697 7.82995 9.22963 7.69495 9.27088C7.56495 9.31213 7.48995 9.45135 7.52995 9.58541C9.09995 14.8809 8.82995 19.5421 6.73995 23.4248C6.67495 23.5485 6.71495 23.7032 6.83495 23.7703C6.87495 23.7909 6.91495 23.8012 6.95495 23.8012C7.03995 23.8115 7.12495 23.7651 7.16995 23.6774Z" fill="#D89C3A"/>
</g>
<defs>
<clipPath id="clip0_2_510">
<rect width="14" height="33" fill="white"/>
</clipPath>
</defs>
</svg>
